<mxfile host="app.diagrams.net" agent="Mozilla/5.0 (X11; Ubuntu; Linux x86_64; rv:133.0) Gecko/20100101 Firefox/133.0" version="26.0.3">
  <diagram name="Page-1" id="IX0UtP7Ur2-gO4zNA14M">
    <mxGraphModel dx="1364" dy="758" grid="1" gridSize="10" guides="1" tooltips="1" connect="1" arrows="1" fold="1" page="1" pageScale="1" pageWidth="850" pageHeight="1100" math="0" shadow="0">
      <root>
        <mxCell id="0" />
        <mxCell id="1" parent="0" />
        <mxCell id="HOonYF0gohGk651w7h9j-1" value="msg" style="rounded=0;whiteSpace=wrap;html=1;fillColor=#ffe6cc;strokeColor=#d79b00;" vertex="1" parent="1">
          <mxGeometry x="120" y="280" width="120" height="40" as="geometry" />
        </mxCell>
        <mxCell id="HOonYF0gohGk651w7h9j-6" value="" style="edgeStyle=orthogonalEdgeStyle;rounded=0;orthogonalLoop=1;jettySize=auto;html=1;" edge="1" parent="1" source="HOonYF0gohGk651w7h9j-2" target="HOonYF0gohGk651w7h9j-5">
          <mxGeometry relative="1" as="geometry" />
        </mxCell>
        <mxCell id="HOonYF0gohGk651w7h9j-2" value="01" style="rounded=0;whiteSpace=wrap;html=1;fillColor=#fff2cc;strokeColor=#d6b656;" vertex="1" parent="1">
          <mxGeometry x="240" y="280" width="40" height="40" as="geometry" />
        </mxCell>
        <mxCell id="HOonYF0gohGk651w7h9j-3" value="00..0" style="rounded=0;whiteSpace=wrap;html=1;fillColor=#fff2cc;strokeColor=#d6b656;" vertex="1" parent="1">
          <mxGeometry x="280" y="280" width="120" height="40" as="geometry" />
        </mxCell>
        <mxCell id="HOonYF0gohGk651w7h9j-8" style="edgeStyle=orthogonalEdgeStyle;rounded=0;orthogonalLoop=1;jettySize=auto;html=1;entryX=1;entryY=0.5;entryDx=0;entryDy=0;exitX=0.5;exitY=1;exitDx=0;exitDy=0;" edge="1" parent="1" source="HOonYF0gohGk651w7h9j-4" target="HOonYF0gohGk651w7h9j-7">
          <mxGeometry relative="1" as="geometry" />
        </mxCell>
        <mxCell id="HOonYF0gohGk651w7h9j-14" style="edgeStyle=orthogonalEdgeStyle;rounded=0;orthogonalLoop=1;jettySize=auto;html=1;exitX=0.5;exitY=1;exitDx=0;exitDy=0;entryX=0.5;entryY=0;entryDx=0;entryDy=0;" edge="1" parent="1" source="HOonYF0gohGk651w7h9j-4" target="HOonYF0gohGk651w7h9j-11">
          <mxGeometry relative="1" as="geometry" />
        </mxCell>
        <mxCell id="HOonYF0gohGk651w7h9j-4" value="rand" style="rounded=0;whiteSpace=wrap;html=1;fillColor=#e1d5e7;strokeColor=#9673a6;" vertex="1" parent="1">
          <mxGeometry x="410" y="280" width="230" height="40" as="geometry" />
        </mxCell>
        <mxCell id="HOonYF0gohGk651w7h9j-15" style="edgeStyle=orthogonalEdgeStyle;rounded=0;orthogonalLoop=1;jettySize=auto;html=1;exitX=0.5;exitY=1;exitDx=0;exitDy=0;entryX=0;entryY=0.5;entryDx=0;entryDy=0;" edge="1" parent="1" source="HOonYF0gohGk651w7h9j-5" target="HOonYF0gohGk651w7h9j-10">
          <mxGeometry relative="1" as="geometry" />
        </mxCell>
        <mxCell id="HOonYF0gohGk651w7h9j-20" style="edgeStyle=orthogonalEdgeStyle;rounded=0;orthogonalLoop=1;jettySize=auto;html=1;exitX=0.5;exitY=1;exitDx=0;exitDy=0;entryX=0.5;entryY=0;entryDx=0;entryDy=0;" edge="1" parent="1" source="HOonYF0gohGk651w7h9j-5" target="HOonYF0gohGk651w7h9j-18">
          <mxGeometry relative="1" as="geometry" />
        </mxCell>
        <mxCell id="HOonYF0gohGk651w7h9j-5" value="" style="shape=orEllipse;perimeter=ellipsePerimeter;whiteSpace=wrap;html=1;backgroundOutline=1;" vertex="1" parent="1">
          <mxGeometry x="240" y="360" width="40" height="40" as="geometry" />
        </mxCell>
        <mxCell id="HOonYF0gohGk651w7h9j-9" style="edgeStyle=orthogonalEdgeStyle;rounded=0;orthogonalLoop=1;jettySize=auto;html=1;exitX=0;exitY=0.5;exitDx=0;exitDy=0;entryX=1;entryY=0.5;entryDx=0;entryDy=0;" edge="1" parent="1" source="HOonYF0gohGk651w7h9j-7" target="HOonYF0gohGk651w7h9j-5">
          <mxGeometry relative="1" as="geometry" />
        </mxCell>
        <mxCell id="HOonYF0gohGk651w7h9j-7" value="H" style="rounded=0;whiteSpace=wrap;html=1;fillColor=#dae8fc;strokeColor=#6c8ebf;" vertex="1" parent="1">
          <mxGeometry x="400" y="360" width="80" height="40" as="geometry" />
        </mxCell>
        <mxCell id="HOonYF0gohGk651w7h9j-13" value="" style="edgeStyle=orthogonalEdgeStyle;rounded=0;orthogonalLoop=1;jettySize=auto;html=1;" edge="1" parent="1" source="HOonYF0gohGk651w7h9j-10" target="HOonYF0gohGk651w7h9j-11">
          <mxGeometry relative="1" as="geometry" />
        </mxCell>
        <mxCell id="HOonYF0gohGk651w7h9j-10" value="G" style="rounded=0;whiteSpace=wrap;html=1;fillColor=#dae8fc;strokeColor=#6c8ebf;" vertex="1" parent="1">
          <mxGeometry x="400" y="440" width="80" height="40" as="geometry" />
        </mxCell>
        <mxCell id="HOonYF0gohGk651w7h9j-21" style="edgeStyle=orthogonalEdgeStyle;rounded=0;orthogonalLoop=1;jettySize=auto;html=1;entryX=0.5;entryY=0;entryDx=0;entryDy=0;" edge="1" parent="1" source="HOonYF0gohGk651w7h9j-11" target="HOonYF0gohGk651w7h9j-19">
          <mxGeometry relative="1" as="geometry" />
        </mxCell>
        <mxCell id="HOonYF0gohGk651w7h9j-11" value="" style="shape=orEllipse;perimeter=ellipsePerimeter;whiteSpace=wrap;html=1;backgroundOutline=1;" vertex="1" parent="1">
          <mxGeometry x="505" y="440" width="40" height="40" as="geometry" />
        </mxCell>
        <mxCell id="HOonYF0gohGk651w7h9j-18" value="plaintext to encrypt" style="rounded=0;whiteSpace=wrap;html=1;fillColor=#f8cecc;strokeColor=#b85450;" vertex="1" parent="1">
          <mxGeometry x="120" y="520" width="280" height="40" as="geometry" />
        </mxCell>
        <mxCell id="HOonYF0gohGk651w7h9j-19" value="with RSA" style="rounded=0;whiteSpace=wrap;html=1;fillColor=#f8cecc;strokeColor=#b85450;" vertex="1" parent="1">
          <mxGeometry x="410" y="520" width="230" height="40" as="geometry" />
        </mxCell>
      </root>
    </mxGraphModel>
  </diagram>
</mxfile>
